<svg xmlns="http://www.w3.org/2000/svg" xmlns:xlink="http://www.w3.org/1999/xlink" width="500" zoomAndPan="magnify" viewBox="0 0 375 374.999991" height="500" preserveAspectRatio="xMidYMid meet" version="1.0"><defs><g/><clipPath id="ccba85c9f4"><path d="M 263 115 L 340 115 L 340 206 L 263 206 Z M 263 115 " clip-rule="nonzero"/></clipPath><clipPath id="daa0051093"><path d="M 224.609375 133.765625 L 330.644531 37.445312 L 419.398438 135.152344 L 313.363281 231.472656 Z M 224.609375 133.765625 " clip-rule="nonzero"/></clipPath><clipPath id="b988e8a36c"><path d="M 185.472656 127.945312 L 328.144531 -1.65625 L 457.75 141.015625 L 315.074219 270.621094 Z M 185.472656 127.945312 " clip-rule="nonzero"/></clipPath><clipPath id="294b1ea7d2"><path d="M 302 146 L 307 146 L 307 151 L 302 151 Z M 302 146 " clip-rule="nonzero"/></clipPath><clipPath id="dc9cb7d7fa"><path d="M 224.609375 133.765625 L 330.644531 37.445312 L 419.398438 135.152344 L 313.363281 231.472656 Z M 224.609375 133.765625 " clip-rule="nonzero"/></clipPath><clipPath id="139e091cd9"><path d="M 185.472656 127.945312 L 328.144531 -1.65625 L 457.75 141.015625 L 315.074219 270.621094 Z M 185.472656 127.945312 " clip-rule="nonzero"/></clipPath><clipPath id="083a256a4e"><path d="M 309 149 L 314 149 L 314 154 L 309 154 Z M 309 149 " clip-rule="nonzero"/></clipPath><clipPath id="a88868efd2"><path d="M 224.609375 133.765625 L 330.644531 37.445312 L 419.398438 135.152344 L 313.363281 231.472656 Z M 224.609375 133.765625 " clip-rule="nonzero"/></clipPath><clipPath id="8d98e48da9"><path d="M 185.472656 127.945312 L 328.144531 -1.65625 L 457.75 141.015625 L 315.074219 270.621094 Z M 185.472656 127.945312 " clip-rule="nonzero"/></clipPath><clipPath id="bb0d7ab45f"><path d="M 296 137 L 321 137 L 321 163 L 296 163 Z M 296 137 " clip-rule="nonzero"/></clipPath><clipPath id="72f1e9f5bd"><path d="M 224.609375 133.765625 L 330.644531 37.445312 L 419.398438 135.152344 L 313.363281 231.472656 Z M 224.609375 133.765625 " clip-rule="nonzero"/></clipPath><clipPath id="7e74712501"><path d="M 185.472656 127.945312 L 328.144531 -1.65625 L 457.75 141.015625 L 315.074219 270.621094 Z M 185.472656 127.945312 " clip-rule="nonzero"/></clipPath><clipPath id="97188601b2"><path d="M 259 69 L 369 69 L 369 206 L 259 206 Z M 259 69 " clip-rule="nonzero"/></clipPath><clipPath id="9ac52c0455"><path d="M 224.609375 133.765625 L 330.644531 37.445312 L 419.398438 135.152344 L 313.363281 231.472656 Z M 224.609375 133.765625 " clip-rule="nonzero"/></clipPath><clipPath id="e463d3b5a8"><path d="M 185.472656 127.945312 L 328.144531 -1.65625 L 457.75 141.015625 L 315.074219 270.621094 Z M 185.472656 127.945312 " clip-rule="nonzero"/></clipPath><clipPath id="6dc148ca3a"><path d="M 325 109 L 330 109 L 330 116 L 325 116 Z M 325 109 " clip-rule="nonzero"/></clipPath><clipPath id="812b58655b"><path d="M 224.609375 133.765625 L 330.644531 37.445312 L 419.398438 135.152344 L 313.363281 231.472656 Z M 224.609375 133.765625 " clip-rule="nonzero"/></clipPath><clipPath id="49779f2a8d"><path d="M 185.472656 127.945312 L 328.144531 -1.65625 L 457.75 141.015625 L 315.074219 270.621094 Z M 185.472656 127.945312 " clip-rule="nonzero"/></clipPath><clipPath id="c25b63aea4"><path d="M 333 117 L 339 117 L 339 124 L 333 124 Z M 333 117 " clip-rule="nonzero"/></clipPath><clipPath id="e2fa8069b6"><path d="M 224.609375 133.765625 L 330.644531 37.445312 L 419.398438 135.152344 L 313.363281 231.472656 Z M 224.609375 133.765625 " clip-rule="nonzero"/></clipPath><clipPath id="6e80c8eed0"><path d="M 185.472656 127.945312 L 328.144531 -1.65625 L 457.75 141.015625 L 315.074219 270.621094 Z M 185.472656 127.945312 " clip-rule="nonzero"/></clipPath><clipPath id="ae6d112021"><path d="M 314 98 L 350 98 L 350 135 L 314 135 Z M 314 98 " clip-rule="nonzero"/></clipPath><clipPath id="4b530b5b13"><path d="M 224.609375 133.765625 L 330.644531 37.445312 L 419.398438 135.152344 L 313.363281 231.472656 Z M 224.609375 133.765625 " clip-rule="nonzero"/></clipPath><clipPath id="6da0688941"><path d="M 185.472656 127.945312 L 328.144531 -1.65625 L 457.75 141.015625 L 315.074219 270.621094 Z M 185.472656 127.945312 " clip-rule="nonzero"/></clipPath><clipPath id="e327cbec16"><path d="M 99.117188 172.832031 L 143.46875 172.832031 L 143.46875 218.527344 L 99.117188 218.527344 Z M 99.117188 172.832031 " clip-rule="nonzero"/></clipPath><clipPath id="88eabeb019"><path d="M 288.15625 171.941406 L 332.511719 171.941406 L 332.511719 217.640625 L 288.15625 217.640625 Z M 288.15625 171.941406 " clip-rule="nonzero"/></clipPath></defs><g clip-path="url(#ccba85c9f4)"><g clip-path="url(#daa0051093)"><g clip-path="url(#b988e8a36c)"><path fill="#1f83bd" d="M 303.5 170.753906 C 303.5 170.753906 292.730469 157.21875 278.628906 151.289062 L 308.992188 123.78125 C 334.457031 145.628906 340.242188 173.390625 331.40625 205.554688 C 346.457031 171.910156 340.136719 141.621094 309.253906 115.191406 L 267.105469 153.476562 L 277.898438 156.964844 L 263.453125 170.089844 C 263.453125 170.089844 287.53125 170.449219 297.261719 174.683594 C 297.261719 174.683594 288.140625 167.277344 278.480469 166.242188 L 285.40625 159.953125 C 285.40625 159.953125 296.480469 164.707031 303.5 170.753906 Z M 303.5 170.753906 " fill-opacity="1" fill-rule="nonzero"/></g></g></g><g clip-path="url(#294b1ea7d2)"><g clip-path="url(#dc9cb7d7fa)"><g clip-path="url(#139e091cd9)"><path fill="#1f83bd" d="M 304.167969 146.742188 L 303.753906 147.121094 C 303.464844 147.382812 303.261719 147.625 303.132812 147.855469 C 303.003906 148.085938 302.933594 148.285156 302.925781 148.460938 C 302.917969 148.675781 302.980469 148.894531 303.117188 149.117188 C 303.253906 149.339844 303.390625 149.527344 303.53125 149.683594 C 303.707031 149.878906 303.882812 150.011719 304.054688 150.089844 C 304.226562 150.167969 304.390625 150.210938 304.550781 150.214844 C 304.707031 150.222656 304.847656 150.207031 304.976562 150.164062 C 305.109375 150.121094 305.214844 150.078125 305.308594 150.035156 L 306.617188 149.433594 L 304.171875 146.742188 Z M 304.167969 146.742188 " fill-opacity="1" fill-rule="nonzero"/></g></g></g><g clip-path="url(#083a256a4e)"><g clip-path="url(#a88868efd2)"><g clip-path="url(#8d98e48da9)"><path fill="#1f83bd" d="M 313.148438 152.242188 C 313.363281 151.980469 313.484375 151.734375 313.515625 151.503906 C 313.535156 151.335938 313.507812 151.152344 313.433594 150.945312 C 313.359375 150.742188 313.226562 150.53125 313.03125 150.316406 C 312.761719 150.019531 312.433594 149.804688 312.054688 149.675781 C 311.671875 149.542969 311.191406 149.613281 310.609375 149.878906 L 309.617188 150.332031 L 312.214844 153.191406 L 312.582031 152.855469 C 312.746094 152.707031 312.9375 152.503906 313.148438 152.242188 Z M 313.148438 152.242188 " fill-opacity="1" fill-rule="nonzero"/></g></g></g><g clip-path="url(#bb0d7ab45f)"><g clip-path="url(#72f1e9f5bd)"><g clip-path="url(#7e74712501)"><path fill="#1f83bd" d="M 317.109375 141.832031 C 312.617188 136.886719 304.964844 136.519531 300.019531 141.011719 C 295.074219 145.503906 294.707031 153.15625 299.199219 158.101562 C 303.691406 163.046875 311.34375 163.414062 316.289062 158.921875 C 321.234375 154.429688 321.601562 146.777344 317.109375 141.832031 Z M 308.972656 159.078125 L 307.507812 157.464844 L 311.015625 154.28125 L 308.066406 151.035156 L 305.40625 152.246094 C 305.035156 152.414062 304.667969 152.546875 304.308594 152.640625 C 303.945312 152.738281 303.507812 152.707031 302.996094 152.554688 C 302.578125 152.429688 302.21875 152.238281 301.910156 151.984375 C 301.605469 151.726562 301.339844 151.476562 301.117188 151.230469 C 300.828125 150.914062 300.566406 150.566406 300.328125 150.191406 C 300.089844 149.816406 299.96875 149.402344 299.960938 148.9375 C 299.957031 148.644531 299.996094 148.367188 300.089844 148.105469 C 300.179688 147.847656 300.296875 147.605469 300.445312 147.390625 C 300.59375 147.171875 300.753906 146.96875 300.929688 146.78125 C 301.105469 146.59375 301.28125 146.417969 301.457031 146.261719 L 302.703125 145.128906 L 301.75 144.085938 L 302.949219 142.996094 L 303.902344 144.039062 L 307.191406 141.050781 L 308.660156 142.664062 L 305.367188 145.65625 L 308.160156 148.730469 L 310.507812 147.667969 C 310.867188 147.507812 311.25 147.355469 311.65625 147.214844 C 312.058594 147.070312 312.542969 147.054688 313.105469 147.160156 C 313.601562 147.253906 314.007812 147.425781 314.316406 147.675781 C 314.628906 147.925781 314.945312 148.222656 315.257812 148.570312 C 315.4375 148.765625 315.609375 148.96875 315.773438 149.171875 C 315.941406 149.375 316.082031 149.59375 316.199219 149.824219 C 316.3125 150.054688 316.402344 150.300781 316.457031 150.554688 C 316.515625 150.8125 316.515625 151.089844 316.460938 151.378906 C 316.417969 151.640625 316.335938 151.890625 316.214844 152.125 C 316.089844 152.359375 315.941406 152.578125 315.777344 152.789062 C 315.609375 152.996094 315.429688 153.191406 315.242188 153.371094 C 315.054688 153.554688 314.871094 153.722656 314.695312 153.882812 L 313.679688 154.804688 L 314.628906 155.851562 L 313.429688 156.941406 L 312.480469 155.894531 Z M 308.972656 159.078125 " fill-opacity="1" fill-rule="nonzero"/></g></g></g><g clip-path="url(#97188601b2)"><g clip-path="url(#9ac52c0455)"><g clip-path="url(#e463d3b5a8)"><path fill="#1f83bd" d="M 273.816406 97.574219 L 286.503906 108.558594 L 259.320312 118.03125 C 259.640625 118.175781 272.757812 124.003906 285.023438 131.140625 L 289.53125 127.042969 C 287.246094 124.964844 284.714844 123.03125 281.96875 121.5 L 295 116.964844 C 295 116.964844 295.992188 118 297.550781 119.757812 L 301.808594 115.894531 C 298.769531 110.839844 295.097656 105.738281 290.753906 101.265625 L 347.847656 81.457031 C 367.433594 120.824219 363.328125 157.5625 340.933594 192.269531 C 338.054688 196.730469 334.878906 201.160156 331.402344 205.554688 C 334.1875 202.960938 336.824219 200.332031 339.300781 197.664062 C 372.238281 162.222656 378.09375 119.957031 353.128906 69.933594 Z M 273.816406 97.574219 " fill-opacity="1" fill-rule="nonzero"/></g></g></g><g clip-path="url(#6dc148ca3a)"><g clip-path="url(#812b58655b)"><g clip-path="url(#49779f2a8d)"><path fill="#1f83bd" d="M 327.328125 110.144531 C 326.789062 110.332031 326.367188 110.546875 326.058594 110.785156 C 325.75 111.019531 325.542969 111.253906 325.429688 111.492188 C 325.289062 111.777344 325.253906 112.109375 325.3125 112.492188 C 325.367188 112.871094 325.449219 113.207031 325.550781 113.5 C 325.679688 113.863281 325.839844 114.148438 326.03125 114.355469 C 326.21875 114.558594 326.421875 114.710938 326.628906 114.8125 C 326.835938 114.914062 327.042969 114.972656 327.246094 114.988281 C 327.441406 115.003906 327.621094 115.011719 327.769531 115 L 329.894531 114.945312 L 328.113281 109.871094 Z M 327.328125 110.144531 " fill-opacity="1" fill-rule="nonzero"/></g></g></g><g clip-path="url(#c25b63aea4)"><g clip-path="url(#e2fa8069b6)"><g clip-path="url(#6e80c8eed0)"><path fill="#1f83bd" d="M 336.050781 123.046875 C 336.359375 122.9375 336.730469 122.769531 337.171875 122.542969 C 337.613281 122.3125 337.917969 122.050781 338.09375 121.746094 C 338.214844 121.53125 338.285156 121.265625 338.300781 120.941406 C 338.320312 120.621094 338.253906 120.261719 338.109375 119.855469 C 337.914062 119.292969 337.597656 118.816406 337.152344 118.417969 C 336.707031 118.019531 336.011719 117.832031 335.070312 117.855469 L 333.460938 117.894531 L 335.351562 123.289062 Z M 336.050781 123.046875 " fill-opacity="1" fill-rule="nonzero"/></g></g></g><g clip-path="url(#ae6d112021)"><g clip-path="url(#4b530b5b13)"><g clip-path="url(#6da0688941)"><path fill="#1f83bd" d="M 328.625 129.046875 C 329.960938 130.820312 331.203125 132.609375 332.359375 134.421875 C 334.105469 134.359375 335.867188 134.039062 337.605469 133.433594 C 346.910156 130.191406 351.804688 120.007812 348.53125 110.683594 C 345.253906 101.367188 335.058594 96.4375 325.75 99.679688 C 319.425781 101.882812 315.148438 107.292969 314.078125 113.453125 C 318.789062 117.636719 322.9375 121.945312 326.523438 126.367188 L 333.097656 124.074219 L 330.949219 117.957031 L 326.632812 118.066406 C 326.03125 118.078125 325.453125 118.046875 324.910156 117.96875 C 324.363281 117.886719 323.78125 117.59375 323.171875 117.089844 C 322.679688 116.675781 322.296875 116.207031 322.027344 115.679688 C 321.761719 115.160156 321.539062 114.664062 321.378906 114.203125 C 321.171875 113.601562 321.011719 112.984375 320.902344 112.335938 C 320.796875 111.691406 320.871094 111.050781 321.125 110.421875 C 321.285156 110.019531 321.5 109.667969 321.777344 109.363281 C 322.050781 109.0625 322.347656 108.804688 322.675781 108.59375 C 323 108.382812 323.339844 108.203125 323.683594 108.050781 C 324.03125 107.890625 324.367188 107.761719 324.695312 107.648438 L 327.039062 106.828125 L 326.351562 104.859375 L 328.605469 104.070312 L 329.296875 106.042969 L 335.488281 103.882812 L 336.558594 106.925781 L 330.367188 109.085938 L 332.402344 114.878906 L 336.203125 114.792969 C 336.785156 114.785156 337.390625 114.800781 338.023438 114.839844 C 338.65625 114.882812 339.324219 115.136719 340.03125 115.609375 C 340.652344 116.019531 341.101562 116.488281 341.382812 117.003906 C 341.664062 117.527344 341.917969 118.117188 342.148438 118.773438 C 342.277344 119.140625 342.398438 119.511719 342.507812 119.886719 C 342.617188 120.261719 342.679688 120.636719 342.710938 121.019531 C 342.734375 121.398438 342.710938 121.78125 342.640625 122.164062 C 342.570312 122.542969 342.414062 122.921875 342.171875 123.285156 C 341.964844 123.617188 341.710938 123.910156 341.40625 124.15625 C 341.105469 124.398438 340.78125 124.617188 340.4375 124.800781 C 340.085938 124.988281 339.734375 125.152344 339.371094 125.285156 C 339.007812 125.425781 338.664062 125.546875 338.335938 125.667969 L 336.425781 126.332031 L 337.117188 128.304688 L 334.859375 129.089844 L 334.164062 127.117188 Z M 328.625 129.046875 " fill-opacity="1" fill-rule="nonzero"/></g></g></g><g clip-path="url(#e327cbec16)"><path fill="#1f83bd" d="M 110.378906 187.71875 L 99.390625 217.144531 C 99.121094 217.859375 99.652344 218.625 100.417969 218.625 L 109.765625 218.625 C 110.230469 218.625 110.644531 218.332031 110.796875 217.894531 L 113.410156 210.503906 L 116.566406 201.042969 C 116.640625 200.820312 116.644531 200.578125 116.570312 200.355469 L 112.449219 187.761719 C 112.125 186.777344 110.742188 186.75 110.378906 187.71875 Z M 125.898438 172.832031 L 117.558594 172.832031 C 116.804688 172.832031 116.277344 173.574219 116.523438 174.285156 L 121.207031 187.789062 L 121.214844 187.769531 L 128.898438 210.503906 L 131.5625 217.898438 C 131.71875 218.335938 132.128906 218.625 132.59375 218.625 L 142.171875 218.625 C 142.9375 218.625 143.46875 217.859375 143.199219 217.144531 L 126.925781 173.542969 C 126.765625 173.117188 126.355469 172.832031 125.898438 172.832031 " fill-opacity="1" fill-rule="nonzero"/></g><g fill="#ff00ff" fill-opacity="1"><g transform="translate(4.478402, 219.393543)"><g><path d="M 2.703125 -44.140625 L 14.921875 -44.375 L 15.265625 -25.9375 L 29.15625 -44.640625 L 42.1875 -44.890625 L 29.390625 -28.59375 L 44.203125 -0.84375 L 30.75 -0.578125 L 21.828125 -18.875 L 15.546875 -10.8125 L 15.75 -0.296875 L 3.53125 -0.0625 Z M 2.703125 -44.140625 "/></g></g></g><g fill="#ff00ff" fill-opacity="1"><g transform="translate(52.270354, 218.487865)"><g><path d="M 2.703125 -44.140625 L 14.921875 -44.375 L 15.234375 -27.765625 L 29.03125 -28.03125 L 28.71875 -44.640625 L 40.875 -44.875 L 41.703125 -0.796875 L 29.546875 -0.5625 L 29.21875 -17.765625 L 15.421875 -17.5 L 15.75 -0.296875 L 3.53125 -0.0625 Z M 2.703125 -44.140625 "/></g></g></g><g fill="#00ffff" fill-opacity="1"><g transform="translate(2.11605, 219.438308)"><g><path d="M 2.703125 -44.140625 L 14.921875 -44.375 L 15.265625 -25.9375 L 29.15625 -44.640625 L 42.1875 -44.890625 L 29.390625 -28.59375 L 44.203125 -0.84375 L 30.75 -0.578125 L 21.828125 -18.875 L 15.546875 -10.8125 L 15.75 -0.296875 L 3.53125 -0.0625 Z M 2.703125 -44.140625 "/></g></g></g><g fill="#00ffff" fill-opacity="1"><g transform="translate(49.908002, 218.532629)"><g><path d="M 2.703125 -44.140625 L 14.921875 -44.375 L 15.234375 -27.765625 L 29.03125 -28.03125 L 28.71875 -44.640625 L 40.875 -44.875 L 41.703125 -0.796875 L 29.546875 -0.5625 L 29.21875 -17.765625 L 15.421875 -17.5 L 15.75 -0.296875 L 3.53125 -0.0625 Z M 2.703125 -44.140625 "/></g></g></g><g fill="#1f83bd" fill-opacity="1"><g transform="translate(3.297226, 219.415925)"><g><path d="M 2.703125 -44.140625 L 14.921875 -44.375 L 15.265625 -25.9375 L 29.15625 -44.640625 L 42.1875 -44.890625 L 29.390625 -28.59375 L 44.203125 -0.84375 L 30.75 -0.578125 L 21.828125 -18.875 L 15.546875 -10.8125 L 15.75 -0.296875 L 3.53125 -0.0625 Z M 2.703125 -44.140625 "/></g></g></g><g fill="#1f83bd" fill-opacity="1"><g transform="translate(51.089178, 218.510247)"><g><path d="M 2.703125 -44.140625 L 14.921875 -44.375 L 15.234375 -27.765625 L 29.03125 -28.03125 L 28.71875 -44.640625 L 40.875 -44.875 L 41.703125 -0.796875 L 29.546875 -0.5625 L 29.21875 -17.765625 L 15.421875 -17.5 L 15.75 -0.296875 L 3.53125 -0.0625 Z M 2.703125 -44.140625 "/></g></g></g><g fill="#ff00ff" fill-opacity="1"><g transform="translate(193.765488, 217.21323)"><g><path d="M 1.59375 -22.140625 C 1.53125 -25.378906 2.050781 -28.394531 3.15625 -31.1875 C 4.257812 -33.988281 5.832031 -36.4375 7.875 -38.53125 C 9.914062 -40.625 12.363281 -42.273438 15.21875 -43.484375 C 18.070312 -44.691406 21.203125 -45.328125 24.609375 -45.390625 C 27.921875 -45.453125 30.972656 -44.984375 33.765625 -43.984375 C 36.554688 -42.992188 39.171875 -41.535156 41.609375 -39.609375 L 35.078125 -31.359375 C 33.710938 -32.421875 32.265625 -33.335938 30.734375 -34.109375 C 29.210938 -34.878906 27.316406 -35.242188 25.046875 -35.203125 C 21.515625 -35.140625 18.738281 -33.953125 16.71875 -31.640625 C 14.707031 -29.328125 13.738281 -26.238281 13.8125 -22.375 C 13.882812 -18.425781 14.960938 -15.335938 17.046875 -13.109375 C 19.128906 -10.890625 21.957031 -9.8125 25.53125 -9.875 C 27.675781 -9.914062 29.546875 -10.335938 31.140625 -11.140625 C 32.742188 -11.953125 34.1875 -13 35.46875 -14.28125 L 42.65625 -6.984375 C 40.226562 -4.660156 37.59375 -2.875 34.75 -1.625 C 31.914062 -0.382812 28.675781 0.269531 25.03125 0.34375 C 21.625 0.40625 18.503906 -0.109375 15.671875 -1.203125 C 12.835938 -2.304688 10.378906 -3.863281 8.296875 -5.875 C 6.222656 -7.894531 4.601562 -10.289062 3.4375 -13.0625 C 2.269531 -15.84375 1.65625 -18.867188 1.59375 -22.140625 Z M 1.59375 -22.140625 "/></g></g></g><g fill="#ff00ff" fill-opacity="1"><g transform="translate(241.053712, 216.317098)"><g><path d="M 2.703125 -44.140625 L 14.921875 -44.375 L 15.234375 -27.765625 L 29.03125 -28.03125 L 28.71875 -44.640625 L 40.875 -44.875 L 41.703125 -0.796875 L 29.546875 -0.5625 L 29.21875 -17.765625 L 15.421875 -17.5 L 15.75 -0.296875 L 3.53125 -0.0625 Z M 2.703125 -44.140625 "/></g></g></g><g fill="#00ffff" fill-opacity="1"><g transform="translate(191.403137, 217.257995)"><g><path d="M 1.59375 -22.140625 C 1.53125 -25.378906 2.050781 -28.394531 3.15625 -31.1875 C 4.257812 -33.988281 5.832031 -36.4375 7.875 -38.53125 C 9.914062 -40.625 12.363281 -42.273438 15.21875 -43.484375 C 18.070312 -44.691406 21.203125 -45.328125 24.609375 -45.390625 C 27.921875 -45.453125 30.972656 -44.984375 33.765625 -43.984375 C 36.554688 -42.992188 39.171875 -41.535156 41.609375 -39.609375 L 35.078125 -31.359375 C 33.710938 -32.421875 32.265625 -33.335938 30.734375 -34.109375 C 29.210938 -34.878906 27.316406 -35.242188 25.046875 -35.203125 C 21.515625 -35.140625 18.738281 -33.953125 16.71875 -31.640625 C 14.707031 -29.328125 13.738281 -26.238281 13.8125 -22.375 C 13.882812 -18.425781 14.960938 -15.335938 17.046875 -13.109375 C 19.128906 -10.890625 21.957031 -9.8125 25.53125 -9.875 C 27.675781 -9.914062 29.546875 -10.335938 31.140625 -11.140625 C 32.742188 -11.953125 34.1875 -13 35.46875 -14.28125 L 42.65625 -6.984375 C 40.226562 -4.660156 37.59375 -2.875 34.75 -1.625 C 31.914062 -0.382812 28.675781 0.269531 25.03125 0.34375 C 21.625 0.40625 18.503906 -0.109375 15.671875 -1.203125 C 12.835938 -2.304688 10.378906 -3.863281 8.296875 -5.875 C 6.222656 -7.894531 4.601562 -10.289062 3.4375 -13.0625 C 2.269531 -15.84375 1.65625 -18.867188 1.59375 -22.140625 Z M 1.59375 -22.140625 "/></g></g></g><g fill="#00ffff" fill-opacity="1"><g transform="translate(238.691361, 216.361863)"><g><path d="M 2.703125 -44.140625 L 14.921875 -44.375 L 15.234375 -27.765625 L 29.03125 -28.03125 L 28.71875 -44.640625 L 40.875 -44.875 L 41.703125 -0.796875 L 29.546875 -0.5625 L 29.21875 -17.765625 L 15.421875 -17.5 L 15.75 -0.296875 L 3.53125 -0.0625 Z M 2.703125 -44.140625 "/></g></g></g><g fill="#1f83bd" fill-opacity="1"><g transform="translate(192.584313, 217.235613)"><g><path d="M 1.59375 -22.140625 C 1.53125 -25.378906 2.050781 -28.394531 3.15625 -31.1875 C 4.257812 -33.988281 5.832031 -36.4375 7.875 -38.53125 C 9.914062 -40.625 12.363281 -42.273438 15.21875 -43.484375 C 18.070312 -44.691406 21.203125 -45.328125 24.609375 -45.390625 C 27.921875 -45.453125 30.972656 -44.984375 33.765625 -43.984375 C 36.554688 -42.992188 39.171875 -41.535156 41.609375 -39.609375 L 35.078125 -31.359375 C 33.710938 -32.421875 32.265625 -33.335938 30.734375 -34.109375 C 29.210938 -34.878906 27.316406 -35.242188 25.046875 -35.203125 C 21.515625 -35.140625 18.738281 -33.953125 16.71875 -31.640625 C 14.707031 -29.328125 13.738281 -26.238281 13.8125 -22.375 C 13.882812 -18.425781 14.960938 -15.335938 17.046875 -13.109375 C 19.128906 -10.890625 21.957031 -9.8125 25.53125 -9.875 C 27.675781 -9.914062 29.546875 -10.335938 31.140625 -11.140625 C 32.742188 -11.953125 34.1875 -13 35.46875 -14.28125 L 42.65625 -6.984375 C 40.226562 -4.660156 37.59375 -2.875 34.75 -1.625 C 31.914062 -0.382812 28.675781 0.269531 25.03125 0.34375 C 21.625 0.40625 18.503906 -0.109375 15.671875 -1.203125 C 12.835938 -2.304688 10.378906 -3.863281 8.296875 -5.875 C 6.222656 -7.894531 4.601562 -10.289062 3.4375 -13.0625 C 2.269531 -15.84375 1.65625 -18.867188 1.59375 -22.140625 Z M 1.59375 -22.140625 "/></g></g></g><g fill="#1f83bd" fill-opacity="1"><g transform="translate(239.872538, 216.33948)"><g><path d="M 2.703125 -44.140625 L 14.921875 -44.375 L 15.234375 -27.765625 L 29.03125 -28.03125 L 28.71875 -44.640625 L 40.875 -44.875 L 41.703125 -0.796875 L 29.546875 -0.5625 L 29.21875 -17.765625 L 15.421875 -17.5 L 15.75 -0.296875 L 3.53125 -0.0625 Z M 2.703125 -44.140625 "/></g></g></g><g clip-path="url(#88eabeb019)"><path fill="#1f83bd" d="M 299.421875 186.832031 L 288.433594 216.253906 C 288.164062 216.972656 288.695312 217.734375 289.460938 217.734375 L 298.804688 217.734375 C 299.269531 217.734375 299.683594 217.441406 299.839844 217.003906 L 302.449219 209.613281 L 305.609375 200.152344 C 305.683594 199.929688 305.683594 199.6875 305.609375 199.464844 L 301.492188 186.871094 C 301.167969 185.886719 299.785156 185.859375 299.421875 186.832031 Z M 314.941406 171.941406 L 306.601562 171.941406 C 305.847656 171.941406 305.316406 172.683594 305.566406 173.398438 L 310.25 186.898438 L 310.253906 186.878906 L 317.9375 209.613281 L 320.601562 217.011719 C 320.757812 217.445312 321.171875 217.734375 321.632812 217.734375 L 331.214844 217.734375 C 331.980469 217.734375 332.507812 216.972656 332.242188 216.253906 L 315.96875 172.65625 C 315.808594 172.226562 315.398438 171.941406 314.941406 171.941406 " fill-opacity="1" fill-rule="nonzero"/></g><g fill="#ff00ff" fill-opacity="1"><g transform="translate(146.499173, 216.757686)"><g><path d="M 2.703125 -44.140625 L 22.546875 -44.515625 C 25.941406 -44.585938 28.789062 -44.238281 31.09375 -43.46875 C 33.40625 -42.695312 35.285156 -41.648438 36.734375 -40.328125 C 38.179688 -39.015625 39.226562 -37.488281 39.875 -35.75 C 40.519531 -34.019531 40.859375 -32.234375 40.890625 -30.390625 C 40.941406 -27.867188 40.394531 -25.535156 39.25 -23.390625 C 38.113281 -21.253906 36.257812 -19.550781 33.6875 -18.28125 L 41.890625 -0.796875 L 28.984375 -0.546875 L 22.890625 -16.0625 L 15.453125 -15.921875 L 15.75 -0.296875 L 3.53125 -0.0625 Z M 22.796875 -24.625 C 24.679688 -24.664062 26.140625 -25.132812 27.171875 -26.03125 C 28.203125 -26.9375 28.703125 -28.25 28.671875 -29.96875 C 28.640625 -31.726562 28.066406 -33.03125 26.953125 -33.875 C 25.847656 -34.71875 24.394531 -35.125 22.59375 -35.09375 L 15.09375 -34.953125 L 15.296875 -24.484375 Z M 22.796875 -24.625 "/></g></g></g><g fill="#00ffff" fill-opacity="1"><g transform="translate(144.136822, 216.802451)"><g><path d="M 2.703125 -44.140625 L 22.546875 -44.515625 C 25.941406 -44.585938 28.789062 -44.238281 31.09375 -43.46875 C 33.40625 -42.695312 35.285156 -41.648438 36.734375 -40.328125 C 38.179688 -39.015625 39.226562 -37.488281 39.875 -35.75 C 40.519531 -34.019531 40.859375 -32.234375 40.890625 -30.390625 C 40.941406 -27.867188 40.394531 -25.535156 39.25 -23.390625 C 38.113281 -21.253906 36.257812 -19.550781 33.6875 -18.28125 L 41.890625 -0.796875 L 28.984375 -0.546875 L 22.890625 -16.0625 L 15.453125 -15.921875 L 15.75 -0.296875 L 3.53125 -0.0625 Z M 22.796875 -24.625 C 24.679688 -24.664062 26.140625 -25.132812 27.171875 -26.03125 C 28.203125 -26.9375 28.703125 -28.25 28.671875 -29.96875 C 28.640625 -31.726562 28.066406 -33.03125 26.953125 -33.875 C 25.847656 -34.71875 24.394531 -35.125 22.59375 -35.09375 L 15.09375 -34.953125 L 15.296875 -24.484375 Z M 22.796875 -24.625 "/></g></g></g><g fill="#1f83bd" fill-opacity="1"><g transform="translate(145.317997, 216.780068)"><g><path d="M 2.703125 -44.140625 L 22.546875 -44.515625 C 25.941406 -44.585938 28.789062 -44.238281 31.09375 -43.46875 C 33.40625 -42.695312 35.285156 -41.648438 36.734375 -40.328125 C 38.179688 -39.015625 39.226562 -37.488281 39.875 -35.75 C 40.519531 -34.019531 40.859375 -32.234375 40.890625 -30.390625 C 40.941406 -27.867188 40.394531 -25.535156 39.25 -23.390625 C 38.113281 -21.253906 36.257812 -19.550781 33.6875 -18.28125 L 41.890625 -0.796875 L 28.984375 -0.546875 L 22.890625 -16.0625 L 15.453125 -15.921875 L 15.75 -0.296875 L 3.53125 -0.0625 Z M 22.796875 -24.625 C 24.679688 -24.664062 26.140625 -25.132812 27.171875 -26.03125 C 28.203125 -26.9375 28.703125 -28.25 28.671875 -29.96875 C 28.640625 -31.726562 28.066406 -33.03125 26.953125 -33.875 C 25.847656 -34.71875 24.394531 -35.125 22.59375 -35.09375 L 15.09375 -34.953125 L 15.296875 -24.484375 Z M 22.796875 -24.625 "/></g></g></g><g fill="#4c5270" fill-opacity="1"><g transform="translate(85.771368, 236.38251)"><g><path d="M 5.125 -11.546875 C 5.65625 -11.546875 6.132812 -11.460938 6.5625 -11.296875 C 6.988281 -11.140625 7.351562 -10.910156 7.65625 -10.609375 C 7.957031 -10.304688 8.191406 -9.945312 8.359375 -9.53125 C 8.523438 -9.125 8.609375 -8.671875 8.609375 -8.171875 C 8.609375 -7.367188 8.398438 -6.6875 7.984375 -6.125 C 7.578125 -5.570312 7.019531 -5.1875 6.3125 -4.96875 L 8.765625 0 L 7.0625 0 L 4.828125 -4.8125 L 2.890625 -4.8125 L 2.890625 0 L 1.4375 0 L 1.4375 -11.546875 Z M 2.890625 -6.09375 L 5.125 -6.09375 C 5.738281 -6.09375 6.222656 -6.28125 6.578125 -6.65625 C 6.941406 -7.039062 7.125 -7.546875 7.125 -8.171875 C 7.125 -8.804688 6.941406 -9.3125 6.578125 -9.6875 C 6.210938 -10.070312 5.726562 -10.265625 5.125 -10.265625 L 2.890625 -10.265625 Z M 2.890625 -6.09375 "/></g></g></g><g fill="#4c5270" fill-opacity="1"><g transform="translate(95.390092, 236.38251)"><g><path d="M 1.4375 -8.8125 L 2.890625 -8.8125 L 2.890625 -3.109375 C 2.890625 -1.773438 3.523438 -1.109375 4.796875 -1.109375 C 6.085938 -1.109375 6.734375 -1.773438 6.734375 -3.109375 L 6.734375 -8.8125 L 8.171875 -8.8125 L 8.171875 -3.109375 C 8.171875 -2.054688 7.878906 -1.25 7.296875 -0.6875 C 6.710938 -0.125 5.878906 0.15625 4.796875 0.15625 C 3.722656 0.15625 2.894531 -0.128906 2.3125 -0.703125 C 1.726562 -1.273438 1.4375 -2.078125 1.4375 -3.109375 Z M 1.4375 -8.8125 "/></g></g></g><g fill="#4c5270" fill-opacity="1"><g transform="translate(105.008817, 236.38251)"><g><path d="M 5 -11.703125 L 5 -2.5625 C 5 -2.164062 5.101562 -1.859375 5.3125 -1.640625 C 5.53125 -1.421875 5.828125 -1.3125 6.203125 -1.3125 L 8.8125 -1.3125 L 8.8125 0 L 6.203125 0 C 5.378906 0 4.734375 -0.222656 4.265625 -0.671875 C 3.796875 -1.128906 3.5625 -1.757812 3.5625 -2.5625 L 3.5625 -10.390625 L 0.640625 -10.390625 L 0.640625 -11.703125 Z M 5 -11.703125 "/></g></g></g><g fill="#4c5270" fill-opacity="1"><g transform="translate(114.627541, 236.38251)"><g><path d="M 4.8125 0.15625 C 3.707031 0.15625 2.84375 -0.140625 2.21875 -0.734375 C 1.59375 -1.335938 1.28125 -2.160156 1.28125 -3.203125 L 1.28125 -5.609375 C 1.28125 -6.660156 1.59375 -7.484375 2.21875 -8.078125 C 2.84375 -8.679688 3.707031 -8.984375 4.8125 -8.984375 C 5.90625 -8.984375 6.765625 -8.679688 7.390625 -8.078125 C 8.023438 -7.484375 8.34375 -6.660156 8.34375 -5.609375 L 8.34375 -3.984375 L 2.71875 -3.984375 L 2.71875 -3.28125 C 2.71875 -2.613281 2.898438 -2.085938 3.265625 -1.703125 C 3.640625 -1.316406 4.15625 -1.125 4.8125 -1.125 C 5.289062 -1.125 5.707031 -1.195312 6.0625 -1.34375 C 6.414062 -1.5 6.675781 -1.71875 6.84375 -2 L 8.28125 -2 C 8.101562 -1.332031 7.703125 -0.804688 7.078125 -0.421875 C 6.453125 -0.0351562 5.695312 0.15625 4.8125 0.15625 Z M 6.890625 -5.1875 L 6.890625 -5.609375 C 6.890625 -6.273438 6.707031 -6.785156 6.34375 -7.140625 C 5.976562 -7.503906 5.46875 -7.6875 4.8125 -7.6875 C 4.144531 -7.6875 3.628906 -7.503906 3.265625 -7.140625 C 2.898438 -6.785156 2.71875 -6.273438 2.71875 -5.609375 L 2.71875 -5.1875 Z M 6.890625 -5.1875 "/></g></g></g><g fill="#4c5270" fill-opacity="1"><g transform="translate(124.246265, 236.38251)"><g/></g></g><g fill="#4c5270" fill-opacity="1"><g transform="translate(133.864989, 236.38251)"><g><path d="M 0.484375 -11.546875 L 2 -11.546875 L 4.375 -6.453125 C 4.445312 -6.304688 4.507812 -6.15625 4.5625 -6 C 4.613281 -5.851562 4.660156 -5.722656 4.703125 -5.609375 C 4.742188 -5.472656 4.78125 -5.332031 4.8125 -5.1875 L 4.875 -5.1875 C 4.90625 -5.332031 4.945312 -5.472656 5 -5.609375 C 5.03125 -5.722656 5.070312 -5.851562 5.125 -6 C 5.175781 -6.15625 5.238281 -6.304688 5.3125 -6.453125 L 7.59375 -11.546875 L 9.140625 -11.546875 L 5.53125 -4.015625 L 5.53125 0 L 4.09375 0 L 4.09375 -4.015625 Z M 0.484375 -11.546875 "/></g></g></g><g fill="#4c5270" fill-opacity="1"><g transform="translate(143.483713, 236.38251)"><g><path d="M 2.71875 -3.28125 C 2.71875 -2.613281 2.898438 -2.085938 3.265625 -1.703125 C 3.640625 -1.316406 4.15625 -1.125 4.8125 -1.125 C 5.445312 -1.125 5.953125 -1.316406 6.328125 -1.703125 C 6.703125 -2.085938 6.890625 -2.613281 6.890625 -3.28125 L 6.890625 -5.53125 C 6.890625 -6.207031 6.703125 -6.734375 6.328125 -7.109375 C 5.953125 -7.492188 5.445312 -7.6875 4.8125 -7.6875 C 4.164062 -7.6875 3.65625 -7.492188 3.28125 -7.109375 C 2.90625 -6.734375 2.71875 -6.207031 2.71875 -5.53125 Z M 1.28125 -5.53125 C 1.28125 -6.0625 1.363281 -6.535156 1.53125 -6.953125 C 1.695312 -7.378906 1.929688 -7.742188 2.234375 -8.046875 C 2.535156 -8.347656 2.898438 -8.578125 3.328125 -8.734375 C 3.765625 -8.898438 4.257812 -8.984375 4.8125 -8.984375 C 5.894531 -8.984375 6.753906 -8.675781 7.390625 -8.0625 C 8.023438 -7.457031 8.34375 -6.617188 8.34375 -5.546875 L 8.34375 -3.28125 C 8.34375 -2.75 8.257812 -2.269531 8.09375 -1.84375 C 7.9375 -1.414062 7.703125 -1.054688 7.390625 -0.765625 C 7.085938 -0.472656 6.71875 -0.242188 6.28125 -0.078125 C 5.84375 0.078125 5.351562 0.15625 4.8125 0.15625 C 4.257812 0.15625 3.765625 0.078125 3.328125 -0.078125 C 2.898438 -0.242188 2.535156 -0.472656 2.234375 -0.765625 C 1.929688 -1.066406 1.695312 -1.429688 1.53125 -1.859375 C 1.363281 -2.285156 1.28125 -2.757812 1.28125 -3.28125 Z M 1.28125 -5.53125 "/></g></g></g><g fill="#4c5270" fill-opacity="1"><g transform="translate(153.102437, 236.38251)"><g><path d="M 1.4375 -8.8125 L 2.890625 -8.8125 L 2.890625 -3.109375 C 2.890625 -1.773438 3.523438 -1.109375 4.796875 -1.109375 C 6.085938 -1.109375 6.734375 -1.773438 6.734375 -3.109375 L 6.734375 -8.8125 L 8.171875 -8.8125 L 8.171875 -3.109375 C 8.171875 -2.054688 7.878906 -1.25 7.296875 -0.6875 C 6.710938 -0.125 5.878906 0.15625 4.796875 0.15625 C 3.722656 0.15625 2.894531 -0.128906 2.3125 -0.703125 C 1.726562 -1.273438 1.4375 -2.078125 1.4375 -3.109375 Z M 1.4375 -8.8125 "/></g></g></g><g fill="#4c5270" fill-opacity="1"><g transform="translate(162.721162, 236.38251)"><g><path d="M 1.796875 -8.8125 L 3.15625 -8.8125 L 3.15625 -7.296875 L 3.28125 -7.296875 C 3.425781 -7.816406 3.71875 -8.226562 4.15625 -8.53125 C 4.59375 -8.832031 5.128906 -8.984375 5.765625 -8.984375 C 6.703125 -8.984375 7.429688 -8.691406 7.953125 -8.109375 C 8.484375 -7.523438 8.75 -6.722656 8.75 -5.703125 L 8.75 -5.203125 L 7.3125 -5.203125 L 7.3125 -5.53125 C 7.3125 -6.226562 7.132812 -6.765625 6.78125 -7.140625 C 6.4375 -7.523438 5.945312 -7.71875 5.3125 -7.71875 C 4.675781 -7.71875 4.171875 -7.519531 3.796875 -7.125 C 3.421875 -6.738281 3.234375 -6.207031 3.234375 -5.53125 L 3.234375 0 L 1.796875 0 Z M 1.796875 -8.8125 "/></g></g></g><g fill="#4c5270" fill-opacity="1"><g transform="translate(172.339886, 236.38251)"><g/></g></g><g fill="#4c5270" fill-opacity="1"><g transform="translate(181.95861, 236.38251)"><g><path d="M 0.96875 -6.625 L 0.96875 -7.9375 L 3.53125 -7.9375 L 3.53125 -9.453125 C 3.53125 -10.160156 3.75 -10.710938 4.1875 -11.109375 C 4.625 -11.503906 5.226562 -11.703125 6 -11.703125 L 8.578125 -11.703125 L 8.578125 -10.390625 L 6 -10.390625 C 5.3125 -10.390625 4.96875 -10.078125 4.96875 -9.453125 L 4.96875 -7.9375 L 8.578125 -7.9375 L 8.578125 -6.625 L 4.96875 -6.625 L 4.96875 0 L 3.53125 0 L 3.53125 -6.625 Z M 0.96875 -6.625 "/></g></g></g><g fill="#4c5270" fill-opacity="1"><g transform="translate(191.577334, 236.38251)"><g><path d="M 1.515625 0 L 1.515625 -1.3125 L 4.734375 -1.3125 L 4.734375 -7.5 L 1.921875 -7.5 L 1.921875 -8.8125 L 6.171875 -8.8125 L 6.171875 -1.3125 L 8.8125 -1.3125 L 8.8125 0 Z M 5.046875 -12.265625 L 5.375 -12.265625 C 5.675781 -12.265625 5.921875 -12.171875 6.109375 -11.984375 C 6.304688 -11.804688 6.40625 -11.570312 6.40625 -11.28125 C 6.40625 -11 6.304688 -10.769531 6.109375 -10.59375 C 5.921875 -10.425781 5.675781 -10.34375 5.375 -10.34375 L 5.046875 -10.34375 C 4.734375 -10.34375 4.484375 -10.425781 4.296875 -10.59375 C 4.109375 -10.757812 4.015625 -10.988281 4.015625 -11.28125 C 4.015625 -11.570312 4.109375 -11.804688 4.296875 -11.984375 C 4.484375 -12.171875 4.734375 -12.265625 5.046875 -12.265625 Z M 5.046875 -12.265625 "/></g></g></g><g fill="#4c5270" fill-opacity="1"><g transform="translate(201.196058, 236.38251)"><g><path d="M 1.40625 0 L 1.40625 -8.8125 L 2.765625 -8.8125 L 2.765625 -7.296875 L 2.90625 -7.296875 C 3.039062 -7.828125 3.316406 -8.238281 3.734375 -8.53125 C 4.160156 -8.832031 4.691406 -8.984375 5.328125 -8.984375 C 5.765625 -8.984375 6.160156 -8.90625 6.515625 -8.75 C 6.867188 -8.601562 7.171875 -8.394531 7.421875 -8.125 C 7.679688 -7.851562 7.878906 -7.523438 8.015625 -7.140625 C 8.148438 -6.765625 8.21875 -6.34375 8.21875 -5.875 L 8.21875 0 L 6.78125 0 L 6.78125 -5.625 C 6.78125 -6.300781 6.609375 -6.828125 6.265625 -7.203125 C 5.921875 -7.578125 5.445312 -7.765625 4.84375 -7.765625 C 4.226562 -7.765625 3.742188 -7.5625 3.390625 -7.15625 C 3.035156 -6.757812 2.859375 -6.21875 2.859375 -5.53125 L 2.859375 0 Z M 1.40625 0 "/></g></g></g><g fill="#4c5270" fill-opacity="1"><g transform="translate(210.814782, 236.38251)"><g><path d="M 1.015625 -2.5625 C 1.015625 -2.976562 1.082031 -3.351562 1.21875 -3.6875 C 1.363281 -4.03125 1.570312 -4.316406 1.84375 -4.546875 C 2.125 -4.785156 2.457031 -4.96875 2.84375 -5.09375 C 3.226562 -5.226562 3.660156 -5.296875 4.140625 -5.296875 L 6.765625 -5.296875 L 6.765625 -6.015625 C 6.765625 -6.554688 6.582031 -6.976562 6.21875 -7.28125 C 5.863281 -7.59375 5.351562 -7.75 4.6875 -7.75 C 4.1875 -7.75 3.765625 -7.65625 3.421875 -7.46875 C 3.078125 -7.289062 2.84375 -7.039062 2.71875 -6.71875 L 1.28125 -6.71875 C 1.425781 -7.414062 1.804688 -7.96875 2.421875 -8.375 C 3.035156 -8.78125 3.800781 -8.984375 4.71875 -8.984375 C 5.800781 -8.984375 6.648438 -8.726562 7.265625 -8.21875 C 7.890625 -7.707031 8.203125 -7 8.203125 -6.09375 L 8.203125 0 L 6.890625 0 L 6.890625 -1.6875 L 6.765625 -1.6875 C 6.628906 -1.113281 6.300781 -0.660156 5.78125 -0.328125 C 5.269531 -0.00390625 4.644531 0.15625 3.90625 0.15625 C 3.019531 0.15625 2.316406 -0.0859375 1.796875 -0.578125 C 1.273438 -1.066406 1.015625 -1.726562 1.015625 -2.5625 Z M 4.234375 -1.03125 C 4.597656 -1.03125 4.929688 -1.078125 5.234375 -1.171875 C 5.546875 -1.265625 5.8125 -1.398438 6.03125 -1.578125 C 6.257812 -1.753906 6.4375 -1.957031 6.5625 -2.1875 C 6.695312 -2.425781 6.765625 -2.6875 6.765625 -2.96875 L 6.765625 -4.171875 L 4.171875 -4.171875 C 3.628906 -4.171875 3.207031 -4.03125 2.90625 -3.75 C 2.601562 -3.46875 2.453125 -3.082031 2.453125 -2.59375 C 2.453125 -2.101562 2.601562 -1.71875 2.90625 -1.4375 C 3.21875 -1.164062 3.660156 -1.03125 4.234375 -1.03125 Z M 4.234375 -1.03125 "/></g></g></g><g fill="#4c5270" fill-opacity="1"><g transform="translate(220.433507, 236.38251)"><g><path d="M 1.40625 0 L 1.40625 -8.8125 L 2.765625 -8.8125 L 2.765625 -7.296875 L 2.90625 -7.296875 C 3.039062 -7.828125 3.316406 -8.238281 3.734375 -8.53125 C 4.160156 -8.832031 4.691406 -8.984375 5.328125 -8.984375 C 5.765625 -8.984375 6.160156 -8.90625 6.515625 -8.75 C 6.867188 -8.601562 7.171875 -8.394531 7.421875 -8.125 C 7.679688 -7.851562 7.878906 -7.523438 8.015625 -7.140625 C 8.148438 -6.765625 8.21875 -6.34375 8.21875 -5.875 L 8.21875 0 L 6.78125 0 L 6.78125 -5.625 C 6.78125 -6.300781 6.609375 -6.828125 6.265625 -7.203125 C 5.921875 -7.578125 5.445312 -7.765625 4.84375 -7.765625 C 4.226562 -7.765625 3.742188 -7.5625 3.390625 -7.15625 C 3.035156 -6.757812 2.859375 -6.21875 2.859375 -5.53125 L 2.859375 0 Z M 1.40625 0 "/></g></g></g><g fill="#4c5270" fill-opacity="1"><g transform="translate(230.052231, 236.38251)"><g><path d="M 4.9375 0.15625 C 4.394531 0.15625 3.90625 0.078125 3.46875 -0.078125 C 3.039062 -0.242188 2.671875 -0.472656 2.359375 -0.765625 C 2.054688 -1.066406 1.820312 -1.429688 1.65625 -1.859375 C 1.488281 -2.285156 1.40625 -2.757812 1.40625 -3.28125 L 1.40625 -5.53125 C 1.40625 -6.050781 1.488281 -6.523438 1.65625 -6.953125 C 1.820312 -7.378906 2.054688 -7.742188 2.359375 -8.046875 C 2.671875 -8.347656 3.039062 -8.578125 3.46875 -8.734375 C 3.90625 -8.898438 4.394531 -8.984375 4.9375 -8.984375 C 5.90625 -8.984375 6.703125 -8.71875 7.328125 -8.1875 C 7.953125 -7.65625 8.332031 -6.929688 8.46875 -6.015625 L 7.015625 -6.015625 C 6.941406 -6.523438 6.710938 -6.929688 6.328125 -7.234375 C 5.953125 -7.535156 5.488281 -7.6875 4.9375 -7.6875 C 4.289062 -7.6875 3.78125 -7.492188 3.40625 -7.109375 C 3.039062 -6.734375 2.859375 -6.207031 2.859375 -5.53125 L 2.859375 -3.28125 C 2.859375 -2.613281 3.039062 -2.085938 3.40625 -1.703125 C 3.769531 -1.316406 4.28125 -1.125 4.9375 -1.125 C 5.488281 -1.125 5.953125 -1.273438 6.328125 -1.578125 C 6.710938 -1.878906 6.941406 -2.289062 7.015625 -2.8125 L 8.46875 -2.8125 C 8.320312 -1.875 7.9375 -1.144531 7.3125 -0.625 C 6.6875 -0.101562 5.894531 0.15625 4.9375 0.15625 Z M 4.9375 0.15625 "/></g></g></g><g fill="#4c5270" fill-opacity="1"><g transform="translate(239.670955, 236.38251)"><g><path d="M 4.8125 0.15625 C 3.707031 0.15625 2.84375 -0.140625 2.21875 -0.734375 C 1.59375 -1.335938 1.28125 -2.160156 1.28125 -3.203125 L 1.28125 -5.609375 C 1.28125 -6.660156 1.59375 -7.484375 2.21875 -8.078125 C 2.84375 -8.679688 3.707031 -8.984375 4.8125 -8.984375 C 5.90625 -8.984375 6.765625 -8.679688 7.390625 -8.078125 C 8.023438 -7.484375 8.34375 -6.660156 8.34375 -5.609375 L 8.34375 -3.984375 L 2.71875 -3.984375 L 2.71875 -3.28125 C 2.71875 -2.613281 2.898438 -2.085938 3.265625 -1.703125 C 3.640625 -1.316406 4.15625 -1.125 4.8125 -1.125 C 5.289062 -1.125 5.707031 -1.195312 6.0625 -1.34375 C 6.414062 -1.5 6.675781 -1.71875 6.84375 -2 L 8.28125 -2 C 8.101562 -1.332031 7.703125 -0.804688 7.078125 -0.421875 C 6.453125 -0.0351562 5.695312 0.15625 4.8125 0.15625 Z M 6.890625 -5.1875 L 6.890625 -5.609375 C 6.890625 -6.273438 6.707031 -6.785156 6.34375 -7.140625 C 5.976562 -7.503906 5.46875 -7.6875 4.8125 -7.6875 C 4.144531 -7.6875 3.628906 -7.503906 3.265625 -7.140625 C 2.898438 -6.785156 2.71875 -6.273438 2.71875 -5.609375 L 2.71875 -5.1875 Z M 6.890625 -5.1875 "/></g></g></g><g fill="#4c5270" fill-opacity="1"><g transform="translate(249.289679, 236.38251)"><g><path d="M 4.5625 0.15625 C 3.632812 0.15625 2.867188 -0.0507812 2.265625 -0.46875 C 1.660156 -0.894531 1.316406 -1.460938 1.234375 -2.171875 L 2.75 -2.171875 C 2.820312 -1.859375 3.019531 -1.601562 3.34375 -1.40625 C 3.675781 -1.21875 4.082031 -1.125 4.5625 -1.125 L 5.015625 -1.125 C 5.597656 -1.125 6.046875 -1.242188 6.359375 -1.484375 C 6.679688 -1.722656 6.84375 -2.046875 6.84375 -2.453125 C 6.84375 -3.148438 6.351562 -3.570312 5.375 -3.71875 L 4.046875 -3.90625 C 3.171875 -4.039062 2.519531 -4.316406 2.09375 -4.734375 C 1.664062 -5.148438 1.453125 -5.734375 1.453125 -6.484375 C 1.453125 -7.265625 1.734375 -7.875 2.296875 -8.3125 C 2.859375 -8.757812 3.644531 -8.984375 4.65625 -8.984375 L 5.09375 -8.984375 C 5.519531 -8.984375 5.914062 -8.925781 6.28125 -8.8125 C 6.644531 -8.707031 6.960938 -8.554688 7.234375 -8.359375 C 7.515625 -8.160156 7.742188 -7.925781 7.921875 -7.65625 C 8.097656 -7.382812 8.210938 -7.082031 8.265625 -6.75 L 6.75 -6.75 C 6.6875 -7.03125 6.503906 -7.253906 6.203125 -7.421875 C 5.898438 -7.597656 5.53125 -7.6875 5.09375 -7.6875 L 4.65625 -7.6875 C 4.101562 -7.6875 3.675781 -7.578125 3.375 -7.359375 C 3.070312 -7.148438 2.921875 -6.832031 2.921875 -6.40625 C 2.921875 -6.070312 3.023438 -5.816406 3.234375 -5.640625 C 3.441406 -5.460938 3.78125 -5.34375 4.25 -5.28125 L 5.578125 -5.078125 C 6.523438 -4.941406 7.210938 -4.664062 7.640625 -4.25 C 8.078125 -3.832031 8.296875 -3.238281 8.296875 -2.46875 C 8.296875 -1.644531 8.007812 -1 7.4375 -0.53125 C 6.875 -0.0703125 6.066406 0.15625 5.015625 0.15625 Z M 4.5625 0.15625 "/></g></g></g><g fill="#4c5270" fill-opacity="1"><g transform="translate(258.908403, 236.38251)"><g><path d="M 3.4375 -1.265625 C 3.4375 -1.679688 3.5625 -2.015625 3.8125 -2.265625 C 4.0625 -2.515625 4.394531 -2.640625 4.8125 -2.640625 C 5.226562 -2.640625 5.5625 -2.515625 5.8125 -2.265625 C 6.0625 -2.015625 6.1875 -1.679688 6.1875 -1.265625 C 6.1875 -0.835938 6.0625 -0.492188 5.8125 -0.234375 C 5.5625 0.0234375 5.226562 0.15625 4.8125 0.15625 C 4.394531 0.15625 4.0625 0.0234375 3.8125 -0.234375 C 3.5625 -0.492188 3.4375 -0.835938 3.4375 -1.265625 Z M 3.4375 -1.265625 "/></g></g></g><g fill="#4c5270" fill-opacity="1"><g transform="translate(268.527127, 236.38251)"><g><path d="M 3.4375 -1.265625 C 3.4375 -1.679688 3.5625 -2.015625 3.8125 -2.265625 C 4.0625 -2.515625 4.394531 -2.640625 4.8125 -2.640625 C 5.226562 -2.640625 5.5625 -2.515625 5.8125 -2.265625 C 6.0625 -2.015625 6.1875 -1.679688 6.1875 -1.265625 C 6.1875 -0.835938 6.0625 -0.492188 5.8125 -0.234375 C 5.5625 0.0234375 5.226562 0.15625 4.8125 0.15625 C 4.394531 0.15625 4.0625 0.0234375 3.8125 -0.234375 C 3.5625 -0.492188 3.4375 -0.835938 3.4375 -1.265625 Z M 3.4375 -1.265625 "/></g></g></g><g fill="#4c5270" fill-opacity="1"><g transform="translate(278.145852, 236.38251)"><g><path d="M 3.4375 -1.265625 C 3.4375 -1.679688 3.5625 -2.015625 3.8125 -2.265625 C 4.0625 -2.515625 4.394531 -2.640625 4.8125 -2.640625 C 5.226562 -2.640625 5.5625 -2.515625 5.8125 -2.265625 C 6.0625 -2.015625 6.1875 -1.679688 6.1875 -1.265625 C 6.1875 -0.835938 6.0625 -0.492188 5.8125 -0.234375 C 5.5625 0.0234375 5.226562 0.15625 4.8125 0.15625 C 4.394531 0.15625 4.0625 0.0234375 3.8125 -0.234375 C 3.5625 -0.492188 3.4375 -0.835938 3.4375 -1.265625 Z M 3.4375 -1.265625 "/></g></g></g><g fill="#4c5270" fill-opacity="1"><g transform="translate(287.764564, 236.38251)"><g><path d="M 3.4375 -1.265625 C 3.4375 -1.679688 3.5625 -2.015625 3.8125 -2.265625 C 4.0625 -2.515625 4.394531 -2.640625 4.8125 -2.640625 C 5.226562 -2.640625 5.5625 -2.515625 5.8125 -2.265625 C 6.0625 -2.015625 6.1875 -1.679688 6.1875 -1.265625 C 6.1875 -0.835938 6.0625 -0.492188 5.8125 -0.234375 C 5.5625 0.0234375 5.226562 0.15625 4.8125 0.15625 C 4.394531 0.15625 4.0625 0.0234375 3.8125 -0.234375 C 3.5625 -0.492188 3.4375 -0.835938 3.4375 -1.265625 Z M 3.4375 -1.265625 "/></g></g></g><g fill="#4c5270" fill-opacity="1"><g transform="translate(297.383277, 236.38251)"><g><path d="M 3.4375 -1.265625 C 3.4375 -1.679688 3.5625 -2.015625 3.8125 -2.265625 C 4.0625 -2.515625 4.394531 -2.640625 4.8125 -2.640625 C 5.226562 -2.640625 5.5625 -2.515625 5.8125 -2.265625 C 6.0625 -2.015625 6.1875 -1.679688 6.1875 -1.265625 C 6.1875 -0.835938 6.0625 -0.492188 5.8125 -0.234375 C 5.5625 0.0234375 5.226562 0.15625 4.8125 0.15625 C 4.394531 0.15625 4.0625 0.0234375 3.8125 -0.234375 C 3.5625 -0.492188 3.4375 -0.835938 3.4375 -1.265625 Z M 3.4375 -1.265625 "/></g></g></g></svg>